<svg width="1298" height="789" viewBox="0 0 1298 789" fill="none" xmlns="http://www.w3.org/2000/svg">
<path d="M649 1192C1006.88 1192 1297 926.963 1297 600.023C1297 273.082 1006.88 8.04492 649 8.04492C291.119 8.04492 1 273.082 1 600.023C1 926.963 291.119 1192 649 1192Z" stroke="#404040" stroke-miterlimit="10"/>
<path d="M649 1189.69V5.73608" stroke="#404040" stroke-miterlimit="10"/>
<path d="M1 597.714H1297" stroke="#404040" stroke-miterlimit="10"/>
<path d="M3.13965 632.462C3.13965 632.462 97.4883 1027.02 650.232 1027.02C1226.95 1027.02 1294.8 626.128 1294.8 626.128" stroke="#404040" stroke-miterlimit="10"/>
<path d="M1294.8 573.56C1294.8 573.56 1201.68 167.168 649.002 167.168C72.2815 167.168 3.13965 579.894 3.13965 579.894" stroke="#404040" stroke-miterlimit="10"/>
<path d="M1106.55 1019.2L190.345 182.204" stroke="#404040" stroke-miterlimit="10"/>
<path d="M188.856 1016.83L1105.26 179.719" stroke="#404040" stroke-miterlimit="10"/>
<path d="M649.003 853.388C802.175 853.388 926.346 739.952 926.346 600.022C926.346 460.092 802.175 346.656 649.003 346.656C495.83 346.656 371.658 460.092 371.658 600.022C371.658 739.952 495.83 853.388 649.003 853.388Z" stroke="#404040" stroke-miterlimit="10"/>
<path d="M649 853.388C1006.88 853.388 1297 739.952 1297 600.022C1297 460.092 1006.88 346.656 649 346.656C291.119 346.656 1 460.092 1 600.022C1 739.952 291.119 853.388 649 853.388Z" stroke="#404040" stroke-miterlimit="10"/>
<path d="M655.415 1192C808.588 1192 932.759 926.963 932.759 600.023C932.759 273.082 808.588 8.04492 655.415 8.04492C502.242 8.04492 378.071 273.082 378.071 600.023C378.071 926.963 502.242 1192 655.415 1192Z" stroke="#404040" stroke-miterlimit="10"/>
<path d="M646.407 1184.96C906.335 1184.96 1117.05 919.918 1117.05 592.978C1117.05 266.038 906.335 1 646.407 1C386.478 1 175.764 266.038 175.764 592.978C175.764 919.918 386.478 1184.96 646.407 1184.96Z" stroke="#404040" stroke-miterlimit="10"/>
</svg>
