<svg width="1293" height="912" viewBox="0 0 1293 912" fill="none" xmlns="http://www.w3.org/2000/svg">
<path d="M303.667 919.942C726.784 757.519 1089.07 711.975 1112.85 818.217C1136.63 924.459 812.906 1142.25 389.788 1304.68C-33.3296 1467.1 -395.613 1512.64 -419.395 1406.4C-443.177 1300.16 -119.451 1082.37 303.667 919.942Z" stroke="#404040" stroke-miterlimit="10"/>
<path d="M236.622 622.052C468.77 532.888 667.444 507.376 680.373 565.07C693.302 622.765 515.59 741.817 283.442 830.982C51.2944 920.146 -147.38 945.657 -160.309 887.963C-173.238 830.269 4.47431 711.217 236.622 622.052Z" stroke="#404040" stroke-miterlimit="10"/>
<path d="M188.116 399.641C319.273 349.266 432.271 338.21 440.504 374.948C448.736 411.686 349.087 482.305 217.93 532.681C86.7729 583.056 -26.2248 594.111 -34.4576 557.373C-42.6904 520.635 56.9594 450.017 188.116 399.641Z" stroke="#404040" stroke-miterlimit="10"/>
<path d="M173.677 330.754C251.279 300.948 310.529 260.529 306.052 240.55C301.575 220.571 235.036 228.465 157.434 258.271C79.8312 288.077 20.4874 328.448 24.982 348.505C29.4766 368.561 96.304 360.472 173.677 330.754Z" stroke="#404040" stroke-miterlimit="10"/>
<path d="M-411.815 1360.26C-273.583 1123.96 -156.855 876.648 -63.4548 622.169C127.063 101.225 45.1222 -233.239 45.1222 -233.239" stroke="#404040" stroke-miterlimit="10"/>
<path d="M1086.92 784.615C873.049 683.575 672.736 558.029 489.108 409.938C114.192 106.168 44.8152 -233.121 44.8152 -233.121" stroke="#404040" stroke-miterlimit="10"/>
<path d="M391.049 1310.42L42.6749 -244.158" stroke="#404040" stroke-miterlimit="10"/>
<path d="M64.4533 -145.123C64.4533 -145.123 110.263 214.489 26.3721 672.528C-70.3557 1200.26 -217.548 1461.58 -217.548 1461.58" stroke="#404040" stroke-miterlimit="10"/>
<path d="M80.9902 1405.96C80.9902 1405.96 174.62 1087.92 147.192 624.694C131.693 363.953 73.4635 -99.7178 73.4635 -99.7178" stroke="#404040" stroke-miterlimit="10"/>
<path d="M66.8258 -146.034C66.8258 -146.034 176.678 188.979 436.292 515.084C735.467 890.753 967.171 1006.55 967.171 1006.55" stroke="#404040" stroke-miterlimit="10"/>
<path d="M692.692 1171.02C692.692 1171.02 482.73 969.575 314.576 560.403C220.018 330.028 77.6748 -101.336 77.6748 -101.336" stroke="#404040" stroke-miterlimit="10"/>
</svg>
