<svg width="30" height="30" viewBox="0 0 30 30" fill="none" xmlns="http://www.w3.org/2000/svg">
<path d="M25.7703 9.7799H19.594V5.39084C19.594 3.28511 18.988 1.75655 17.7882 0.849562C15.9029 -0.583858 13.3381 0.221648 13.2279 0.259703C12.7933 0.39924 12.4934 0.824192 12.4934 1.29988V6.59593C12.4934 10.5156 8.04326 11.8793 7.8535 11.93C7.84126 11.9364 7.82901 11.9364 7.82289 11.9427L7.31483 12.1076C6.73944 11.5431 5.96817 11.2006 5.12344 11.2006H3.19527C1.43236 11.1943 0 12.6785 0 14.5051V25.8964C0 27.723 1.43236 29.2072 3.19527 29.2072H5.12344C5.93756 29.2072 6.68435 28.8901 7.2475 28.3636C8.0555 29.3594 9.2675 30 10.6203 30H23.132C26.0335 30 27.9616 28.3509 28.2983 25.5919L29.8531 15.4755L29.9388 14.9301C29.9755 14.6764 30 14.4163 30 14.1563C29.9939 11.7461 28.0963 9.7799 25.7703 9.7799ZM6.21914 25.9027C6.21914 26.5306 5.72944 27.038 5.12344 27.038H3.19527C2.58927 27.038 2.09957 26.5306 2.09957 25.9027V14.5051C2.09957 13.8772 2.58927 13.3698 3.19527 13.3698H5.12344C5.72944 13.3698 6.21914 13.8772 6.21914 14.5051V25.9027ZM27.8637 14.5939L26.2232 25.2748C26.2232 25.2875 26.2171 25.3002 26.2171 25.3128C26.1436 25.9344 25.9233 27.8308 23.132 27.8308H10.6203C9.35319 27.8308 8.31871 26.759 8.31871 25.446V14.5051C8.31871 14.3592 8.30647 14.2134 8.2881 14.0675L8.44113 14.0167C8.88798 13.8835 14.5929 12.0696 14.5929 6.58959V2.19419C15.1989 2.13076 15.9947 2.17516 16.5517 2.60645C17.1761 3.08849 17.4944 4.02085 17.4944 5.39084V10.8708C17.4944 11.4734 17.9657 11.9617 18.5472 11.9617H25.7703C26.9455 11.9617 27.8943 12.9512 27.8943 14.1626C27.8943 14.3021 27.8821 14.448 27.8637 14.5939Z" fill="#707070"/>
</svg>
